<?xml version="1.0" encoding="UTF-8" standalone="no"?>
<!DOCTYPE svg PUBLIC "-//W3C//DTD SVG 1.1//EN" "http://www.w3.org/Graphics/SVG/1.1/DTD/svg11.dtd">
<svg width="100%" height="100%" viewBox="0 0 850 292" version="1.1" xmlns="http://www.w3.org/2000/svg" xmlns:xlink="http://www.w3.org/1999/xlink" xml:space="preserve" xmlns:serif="http://www.serif.com/" style="fill-rule:evenodd;clip-rule:evenodd;stroke-miterlimit:1.5;">
    <style>
        .path-fill {
            fill: black;
        }
        .path-stroke {
            stroke: black;
            stroke-width: 8px;
        }
        .rect-fill {
            fill: black;
        }
    </style>
    <g transform="matrix(1,0,0,1,-609.194,-230)">
        <g transform="matrix(1,0,0,1,-7.16912,0.233608)">
            <g transform="matrix(1.01667,0,0,1.01667,82.2802,80.5664)">
                <circle cx="840.984" cy="290.361" r="14.754" style="fill:rgb(105,190,40);"/>
            </g>
            <g transform="matrix(1.01667,0,0,1.01667,-177.942,80.5664)">
                <circle cx="840.984" cy="290.361" r="14.754" style="fill:rgb(105,190,40);"/>
            </g>
            <g transform="matrix(1.01667,0,0,1.01667,-47.8309,-49.5446)">
                <circle cx="840.984" cy="290.361" r="14.754" style="fill:rgb(105,190,40);"/>
            </g>
            <g transform="matrix(1.01667,0,0,1.01667,-47.8309,210.677)">
                <circle cx="840.984" cy="290.361" r="14.754" style="fill:rgb(105,190,40);"/>
            </g>
            <g transform="matrix(0.718892,0.718892,-0.718892,0.718892,503.333,-345.545)">
                <circle cx="840.984" cy="290.361" r="14.754" style="fill:rgb(105,190,40);"/>
            </g>
            <g transform="matrix(0.718892,0.718892,-0.718892,0.718892,319.328,-529.55)">
                <circle cx="840.984" cy="290.361" r="14.754" style="fill:rgb(105,190,40);"/>
            </g>
            <g transform="matrix(0.718892,0.718892,-0.718892,0.718892,503.333,-529.55)">
                <circle cx="840.984" cy="290.361" r="14.754" style="fill:rgb(105,190,40);"/>
            </g>
            <g transform="matrix(0.718892,0.718892,-0.718892,0.718892,319.328,-345.545)">
                <circle cx="840.984" cy="290.361" r="14.754" style="fill:rgb(105,190,40);"/>
            </g>
        </g>
        <g transform="matrix(1,0,0,1,-7.16912,-0.766392)">
            <path d="M831.552,247.974C849.341,251.344 865.851,258.342 880.286,268.168" class="path-stroke"/>
        </g>
        <g transform="matrix(1,0,0,1,-7.16912,-0.766392)">
            <path d="M914.768,302.65C924.606,317.078 931.613,333.587 934.961,351.384" class="path-stroke"/>
        </g>
        <g transform="matrix(1,0,0,1,-7.16912,-0.766392)">
            <path d="M934.961,400.149C931.591,417.938 924.593,434.449 914.768,448.883" class="path-stroke"/>
        </g>
        <g transform="matrix(1,0,0,1,-7.16912,-0.766392)">
            <path d="M880.286,483.365C865.857,493.203 849.349,500.21 831.552,503.558" class="path-stroke"/>
        </g>
        <g transform="matrix(1,0,0,1,-7.16912,-0.766392)">
            <path d="M782.786,503.558C764.997,500.188 748.487,493.191 734.052,483.365" class="path-stroke"/>
        </g>
        <g transform="matrix(1,0,0,1,-7.16912,-0.766392)">
            <path d="M699.57,448.883C689.732,434.455 682.725,417.946 679.377,400.149" class="path-stroke"/>
        </g>
        <g transform="matrix(1,0,0,1,-7.16912,-0.766392)">
            <path d="M679.377,351.384C682.747,333.595 689.745,317.084 699.57,302.65" class="path-stroke"/>
        </g>
        <g transform="matrix(1,0,0,1,-7.16912,-0.766392)">
            <path d="M734.052,268.168C748.481,258.33 764.99,251.323 782.786,247.974" class="path-stroke"/>
        </g>
    </g>
    <g transform="matrix(0.430324,0,0,0.430324,-111.222,94.3622)">
        <path d="M588.391,240L707.362,120L588.391,0L588.391,240ZM726.495,240L726.495,0L845.465,120L726.495,240Z" class="path-fill"/>
    </g>
    <g transform="matrix(1,0,0,1,-600.112,-162.44)">
        <g transform="matrix(153,0,0,153,992.034,336.756)">
            <path d="M0.507,-0.682L0.604,-0.682L0.316,0.003L0.294,0.003L0,-0.682L0.098,-0.682L0.303,-0.203L0.507,-0.682Z" class="path-fill"/>
        </g>
        <g transform="matrix(153,0,0,153,1084.45,336.756)">
            <rect x="0.076" y="-0.682" width="0.098" height="0.682" class="rect-fill"/>
        </g>
        <g transform="matrix(153,0,0,153,1122.7,336.756)">
            <path d="M0.07,-0L0.07,-0.683L0.286,-0.683C0.351,-0.683 0.403,-0.666 0.442,-0.63C0.481,-0.595 0.5,-0.548 0.5,-0.489C0.5,-0.449 0.49,-0.414 0.47,-0.383C0.45,-0.353 0.423,-0.33 0.389,-0.317C0.354,-0.303 0.305,-0.296 0.24,-0.296L0.168,-0.296L0.168,-0L0.07,-0ZM0.269,-0.596L0.168,-0.596L0.168,-0.383L0.275,-0.383C0.315,-0.383 0.345,-0.392 0.367,-0.411C0.388,-0.43 0.399,-0.456 0.399,-0.491C0.399,-0.561 0.356,-0.596 0.269,-0.596Z" class="path-fill"/>
        </g>
        <g transform="matrix(153,0,0,153,1227.88,336.756)">
            <path d="M0.293,-0.686L0.362,-0.686L0.667,-0L0.568,-0L0.477,-0.202L0.186,-0.202L0.1,-0L0,-0L0.293,-0.686ZM0.436,-0.289L0.326,-0.536L0.224,-0.289L0.436,-0.289Z" class="path-fill"/>
        </g>
        <g transform="matrix(153,0,0,153,1314.62,336.756)">
            <path d="M0.017,-0.683L0.587,-0.683L0.587,-0.596L0.349,-0.596L0.349,-0L0.251,-0L0.251,-0.596L0.017,-0.596L0.017,-0.683Z" class="path-fill"/>
        </g>
    </g>
    <g transform="matrix(1,0,0,1,-600.112,-148.288)">
        <g transform="matrix(33.7,0,0,33.7,992.034,373.073)">
            <path d="M0.719,-0.682L0.404,0.009L0.33,0.009L-0,-0.682L0.185,-0.682L0.365,-0.292L0.536,-0.682L0.719,-0.682Z" class="path-fill"/>
        </g>
        <g transform="matrix(33.7,0,0,33.7,1016.27,373.073)">
            <path d="M0.109,-0.638C0.124,-0.638 0.136,-0.633 0.146,-0.623C0.157,-0.613 0.162,-0.601 0.162,-0.586C0.162,-0.572 0.157,-0.559 0.146,-0.549C0.136,-0.538 0.124,-0.533 0.109,-0.533C0.095,-0.533 0.083,-0.538 0.073,-0.549C0.062,-0.56 0.057,-0.572 0.057,-0.586C0.057,-0.6 0.062,-0.612 0.073,-0.622C0.083,-0.633 0.095,-0.638 0.109,-0.638ZM0.065,-0.449L0.154,-0.449L0.154,-0L0.065,-0L0.065,-0.449Z" class="path-fill"/>
        </g>
        <g transform="matrix(33.7,0,0,33.7,1023.66,373.073)">
            <path d="M0.363,-0.682L0.452,-0.682L0.452,-0L0.262,-0C0.196,-0 0.143,-0.021 0.103,-0.063C0.064,-0.105 0.044,-0.161 0.044,-0.232C0.044,-0.298 0.065,-0.352 0.106,-0.395C0.148,-0.438 0.201,-0.459 0.265,-0.459C0.295,-0.459 0.328,-0.453 0.363,-0.44L0.363,-0.682ZM0.363,-0.076L0.363,-0.361C0.335,-0.375 0.307,-0.382 0.279,-0.382C0.235,-0.382 0.199,-0.367 0.173,-0.338C0.147,-0.309 0.134,-0.27 0.134,-0.221C0.134,-0.175 0.145,-0.139 0.168,-0.114C0.182,-0.099 0.196,-0.089 0.211,-0.084C0.227,-0.079 0.254,-0.076 0.294,-0.076L0.363,-0.076Z" class="path-fill"/>
        </g>
        <g transform="matrix(33.7,0,0,33.7,1040.84,373.073)">
            <path d="M0.446,-0.217L0.13,-0.217C0.132,-0.174 0.147,-0.14 0.173,-0.114C0.2,-0.089 0.234,-0.076 0.276,-0.076C0.334,-0.076 0.389,-0.094 0.438,-0.131L0.438,-0.044C0.411,-0.026 0.384,-0.013 0.357,-0.005C0.33,0.003 0.298,0.007 0.262,0.007C0.213,0.007 0.173,-0.003 0.142,-0.024C0.111,-0.044 0.087,-0.072 0.069,-0.107C0.05,-0.141 0.041,-0.181 0.041,-0.227C0.041,-0.295 0.06,-0.351 0.099,-0.394C0.138,-0.437 0.188,-0.458 0.25,-0.458C0.31,-0.458 0.357,-0.437 0.393,-0.396C0.428,-0.354 0.446,-0.298 0.446,-0.228L0.446,-0.217ZM0.132,-0.27L0.358,-0.27C0.356,-0.306 0.345,-0.333 0.326,-0.352C0.307,-0.371 0.282,-0.381 0.25,-0.381C0.218,-0.381 0.192,-0.371 0.172,-0.352C0.151,-0.333 0.138,-0.306 0.132,-0.27Z" class="path-fill"/>
        </g>
        <g transform="matrix(33.7,0,0,33.7,1056.98,373.073)">
            <path d="M0.278,-0.45C0.346,-0.45 0.403,-0.428 0.448,-0.384C0.493,-0.34 0.516,-0.285 0.516,-0.218C0.516,-0.153 0.493,-0.099 0.447,-0.056C0.401,-0.014 0.344,0.008 0.274,0.008C0.207,0.008 0.15,-0.014 0.105,-0.057C0.06,-0.101 0.037,-0.155 0.037,-0.22C0.037,-0.286 0.06,-0.341 0.106,-0.385C0.151,-0.428 0.209,-0.45 0.278,-0.45ZM0.273,-0.37C0.23,-0.37 0.195,-0.356 0.168,-0.328C0.141,-0.3 0.127,-0.264 0.127,-0.221C0.127,-0.178 0.141,-0.143 0.169,-0.116C0.197,-0.089 0.233,-0.075 0.277,-0.075C0.32,-0.075 0.356,-0.089 0.384,-0.116C0.412,-0.144 0.426,-0.179 0.426,-0.222C0.426,-0.265 0.411,-0.3 0.382,-0.328C0.353,-0.356 0.317,-0.37 0.273,-0.37Z" class="path-fill"/>
        </g>
        <g transform="matrix(33.7,0,0,33.7,1075.58,373.073)">
            <rect x="0.082" y="-0.682" width="0.17" height="0.682" class="rect-fill"/>
        </g>
        <g transform="matrix(33.7,0,0,33.7,1086.8,373.073)">
            <path d="M0.083,-0.682L0.387,-0.682C0.456,-0.682 0.511,-0.662 0.552,-0.622C0.592,-0.582 0.613,-0.535 0.613,-0.48C0.613,-0.423 0.593,-0.375 0.552,-0.334C0.512,-0.294 0.458,-0.274 0.388,-0.274L0.253,-0.274L0.253,-0L0.083,-0L0.083,-0.682ZM0.253,-0.557L0.253,-0.399L0.332,-0.399C0.403,-0.399 0.438,-0.425 0.438,-0.478C0.438,-0.508 0.429,-0.528 0.41,-0.54C0.391,-0.551 0.359,-0.557 0.313,-0.557L0.253,-0.557Z" class="path-fill"/>
        </g>
        <g transform="matrix(33.7,0,0,33.7,1108.9,373.073)">
            <path d="M0.345,-0.27L0.345,-0.079C0.345,-0.064 0.35,-0.056 0.361,-0.056C0.372,-0.056 0.388,-0.064 0.411,-0.08L0.411,-0.026C0.391,-0.013 0.375,-0.004 0.363,0.001C0.35,0.005 0.338,0.008 0.324,0.008C0.286,0.008 0.264,-0.007 0.257,-0.037C0.219,-0.008 0.179,0.007 0.136,0.007C0.105,0.007 0.079,-0.003 0.058,-0.024C0.037,-0.045 0.027,-0.071 0.027,-0.102C0.027,-0.13 0.037,-0.156 0.057,-0.178C0.078,-0.2 0.107,-0.218 0.144,-0.231L0.258,-0.27L0.258,-0.294C0.258,-0.348 0.231,-0.375 0.177,-0.375C0.128,-0.375 0.081,-0.35 0.035,-0.3L0.035,-0.397C0.07,-0.438 0.119,-0.458 0.184,-0.458C0.233,-0.458 0.271,-0.445 0.301,-0.42C0.311,-0.412 0.319,-0.401 0.327,-0.387C0.335,-0.374 0.34,-0.36 0.342,-0.347C0.344,-0.333 0.345,-0.308 0.345,-0.27ZM0.258,-0.089L0.258,-0.222L0.198,-0.199C0.168,-0.187 0.147,-0.175 0.134,-0.163C0.122,-0.151 0.115,-0.135 0.115,-0.117C0.115,-0.099 0.121,-0.083 0.133,-0.072C0.145,-0.06 0.16,-0.054 0.179,-0.054C0.208,-0.054 0.234,-0.066 0.258,-0.089Z" class="path-fill"/>
        </g>
        <g transform="matrix(33.7,0,0,33.7,1123.28,373.073)">
            <path d="M0,-0.378L0.167,-0.542L0.167,-0.449L0.309,-0.449L0.309,-0.369L0.167,-0.369L0.167,-0.149C0.167,-0.098 0.188,-0.072 0.231,-0.072C0.263,-0.072 0.297,-0.083 0.332,-0.104L0.332,-0.021C0.298,-0.002 0.261,0.008 0.22,0.008C0.18,0.008 0.146,-0.004 0.119,-0.028C0.11,-0.035 0.103,-0.043 0.098,-0.052C0.092,-0.061 0.087,-0.073 0.084,-0.087C0.08,-0.102 0.078,-0.129 0.078,-0.17L0.078,-0.369L0,-0.369L0,-0.378Z" class="path-fill"/>
        </g>
        <g transform="matrix(33.7,0,0,33.7,1134.5,373.073)">
            <path d="M0.061,-0.682L0.15,-0.682L0.15,-0.39C0.187,-0.435 0.233,-0.458 0.288,-0.458C0.318,-0.458 0.345,-0.451 0.369,-0.436C0.392,-0.421 0.41,-0.4 0.422,-0.374C0.433,-0.347 0.439,-0.308 0.439,-0.256L0.439,-0L0.35,-0L0.35,-0.278C0.35,-0.311 0.342,-0.337 0.326,-0.357C0.31,-0.377 0.289,-0.387 0.262,-0.387C0.243,-0.387 0.224,-0.382 0.207,-0.372C0.19,-0.362 0.171,-0.345 0.15,-0.322L0.15,-0L0.061,-0L0.061,-0.682Z" class="path-fill"/>
        </g>
        <g transform="matrix(33.7,0,0,33.7,1160.72,373.073)">
            <path d="M0.475,-0.682L0.778,-0L0.596,-0L0.539,-0.135L0.234,-0.135L0.183,-0L0.003,-0L0.278,-0.682L0.475,-0.682ZM0.49,-0.254L0.379,-0.519L0.279,-0.254L0.49,-0.254Z" class="path-fill"/>
        </g>
        <g transform="matrix(33.7,0,0,33.7,1187.03,373.073)">
            <path d="M0.349,-0L0.349,-0.058C0.33,-0.037 0.309,-0.021 0.284,-0.009C0.26,0.002 0.236,0.008 0.212,0.008C0.184,0.008 0.157,0.001 0.134,-0.013C0.11,-0.028 0.092,-0.047 0.079,-0.071C0.067,-0.095 0.061,-0.136 0.061,-0.192L0.061,-0.449L0.15,-0.449L0.15,-0.193C0.15,-0.146 0.157,-0.113 0.17,-0.094C0.184,-0.076 0.207,-0.066 0.241,-0.066C0.284,-0.066 0.319,-0.087 0.349,-0.128L0.349,-0.449L0.438,-0.449L0.438,-0L0.349,-0Z" class="path-fill"/>
        </g>
        <g transform="matrix(33.7,0,0,33.7,1203.88,373.073)">
            <path d="M0,-0.378L0.167,-0.542L0.167,-0.449L0.309,-0.449L0.309,-0.369L0.167,-0.369L0.167,-0.149C0.167,-0.098 0.188,-0.072 0.231,-0.072C0.263,-0.072 0.297,-0.083 0.332,-0.104L0.332,-0.021C0.298,-0.002 0.261,0.008 0.22,0.008C0.18,0.008 0.146,-0.004 0.119,-0.028C0.11,-0.035 0.103,-0.043 0.098,-0.052C0.092,-0.061 0.087,-0.073 0.084,-0.087C0.08,-0.102 0.078,-0.129 0.078,-0.17L0.078,-0.369L0,-0.369L0,-0.378Z" class="path-fill"/>
        </g>
        <g transform="matrix(33.7,0,0,33.7,1215.1,373.073)">
            <path d="M0.278,-0.45C0.346,-0.45 0.403,-0.428 0.448,-0.384C0.493,-0.34 0.516,-0.285 0.516,-0.218C0.516,-0.153 0.493,-0.099 0.447,-0.056C0.401,-0.014 0.344,0.008 0.274,0.008C0.207,0.008 0.15,-0.014 0.105,-0.057C0.06,-0.101 0.037,-0.155 0.037,-0.22C0.037,-0.286 0.06,-0.341 0.106,-0.385C0.151,-0.428 0.209,-0.45 0.278,-0.45ZM0.273,-0.37C0.23,-0.37 0.195,-0.356 0.168,-0.328C0.141,-0.3 0.127,-0.264 0.127,-0.221C0.127,-0.178 0.141,-0.143 0.169,-0.116C0.197,-0.089 0.233,-0.075 0.277,-0.075C0.32,-0.075 0.356,-0.089 0.384,-0.116C0.412,-0.144 0.426,-0.179 0.426,-0.222C0.426,-0.265 0.411,-0.3 0.382,-0.328C0.353,-0.356 0.317,-0.37 0.273,-0.37Z" class="path-fill"/>
        </g>
        <g transform="matrix(33.7,0,0,33.7,1233.69,373.073)">
            <path d="M0.431,-0.326L0.431,-0L0.342,-0L0.342,-0.25C0.342,-0.3 0.335,-0.335 0.322,-0.354C0.308,-0.374 0.285,-0.384 0.252,-0.384C0.233,-0.384 0.216,-0.38 0.201,-0.371C0.185,-0.363 0.168,-0.348 0.148,-0.326L0.148,-0L0.059,-0L0.059,-0.449L0.148,-0.449L0.148,-0.39C0.193,-0.435 0.237,-0.458 0.281,-0.458C0.338,-0.458 0.382,-0.431 0.413,-0.377C0.461,-0.432 0.51,-0.459 0.562,-0.459C0.606,-0.459 0.642,-0.443 0.67,-0.411C0.698,-0.379 0.712,-0.331 0.712,-0.265L0.712,-0L0.623,-0L0.623,-0.266C0.623,-0.304 0.615,-0.332 0.6,-0.352C0.585,-0.372 0.563,-0.382 0.534,-0.382C0.497,-0.382 0.463,-0.363 0.431,-0.326Z" class="path-fill"/>
        </g>
        <g transform="matrix(33.7,0,0,33.7,1259.68,373.073)">
            <path d="M0.345,-0.27L0.345,-0.079C0.345,-0.064 0.35,-0.056 0.361,-0.056C0.372,-0.056 0.388,-0.064 0.411,-0.08L0.411,-0.026C0.391,-0.013 0.375,-0.004 0.363,0.001C0.35,0.005 0.338,0.008 0.324,0.008C0.286,0.008 0.264,-0.007 0.257,-0.037C0.219,-0.008 0.179,0.007 0.136,0.007C0.105,0.007 0.079,-0.003 0.058,-0.024C0.037,-0.045 0.027,-0.071 0.027,-0.102C0.027,-0.13 0.037,-0.156 0.057,-0.178C0.078,-0.2 0.107,-0.218 0.144,-0.231L0.258,-0.27L0.258,-0.294C0.258,-0.348 0.231,-0.375 0.177,-0.375C0.128,-0.375 0.081,-0.35 0.035,-0.3L0.035,-0.397C0.07,-0.438 0.119,-0.458 0.184,-0.458C0.233,-0.458 0.271,-0.445 0.301,-0.42C0.311,-0.412 0.319,-0.401 0.327,-0.387C0.335,-0.374 0.34,-0.36 0.342,-0.347C0.344,-0.333 0.345,-0.308 0.345,-0.27ZM0.258,-0.089L0.258,-0.222L0.198,-0.199C0.168,-0.187 0.147,-0.175 0.134,-0.163C0.122,-0.151 0.115,-0.135 0.115,-0.117C0.115,-0.099 0.121,-0.083 0.133,-0.072C0.145,-0.06 0.16,-0.054 0.179,-0.054C0.208,-0.054 0.234,-0.066 0.258,-0.089Z" class="path-fill"/>
        </g>
        <g transform="matrix(33.7,0,0,33.7,1274.06,373.073)">
            <path d="M0,-0.378L0.167,-0.542L0.167,-0.449L0.309,-0.449L0.309,-0.369L0.167,-0.369L0.167,-0.149C0.167,-0.098 0.188,-0.072 0.231,-0.072C0.263,-0.072 0.297,-0.083 0.332,-0.104L0.332,-0.021C0.298,-0.002 0.261,0.008 0.22,0.008C0.18,0.008 0.146,-0.004 0.119,-0.028C0.11,-0.035 0.103,-0.043 0.098,-0.052C0.092,-0.061 0.087,-0.073 0.084,-0.087C0.08,-0.102 0.078,-0.129 0.078,-0.17L0.078,-0.369L0,-0.369L0,-0.378Z" class="path-fill"/>
        </g>
        <g transform="matrix(33.7,0,0,33.7,1285.28,373.073)">
            <path d="M0.109,-0.638C0.124,-0.638 0.136,-0.633 0.146,-0.623C0.157,-0.613 0.162,-0.601 0.162,-0.586C0.162,-0.572 0.157,-0.559 0.146,-0.549C0.136,-0.538 0.124,-0.533 0.109,-0.533C0.095,-0.533 0.083,-0.538 0.073,-0.549C0.062,-0.56 0.057,-0.572 0.057,-0.586C0.057,-0.6 0.062,-0.612 0.073,-0.622C0.083,-0.633 0.095,-0.638 0.109,-0.638ZM0.065,-0.449L0.154,-0.449L0.154,-0L0.065,-0L0.065,-0.449Z" class="path-fill"/>
        </g>
        <g transform="matrix(33.7,0,0,33.7,1292.67,373.073)">
            <path d="M0.278,-0.45C0.346,-0.45 0.403,-0.428 0.448,-0.384C0.493,-0.34 0.516,-0.285 0.516,-0.218C0.516,-0.153 0.493,-0.099 0.447,-0.056C0.401,-0.014 0.344,0.008 0.274,0.008C0.207,0.008 0.15,-0.014 0.105,-0.057C0.06,-0.101 0.037,-0.155 0.037,-0.22C0.037,-0.286 0.06,-0.341 0.106,-0.385C0.151,-0.428 0.209,-0.45 0.278,-0.45ZM0.273,-0.37C0.23,-0.37 0.195,-0.356 0.168,-0.328C0.141,-0.3 0.127,-0.264 0.127,-0.221C0.127,-0.178 0.141,-0.143 0.169,-0.116C0.197,-0.089 0.233,-0.075 0.277,-0.075C0.32,-0.075 0.356,-0.089 0.384,-0.116C0.412,-0.144 0.426,-0.179 0.426,-0.222C0.426,-0.265 0.411,-0.3 0.382,-0.328C0.353,-0.356 0.317,-0.37 0.273,-0.37Z" class="path-fill"/>
        </g>
        <g transform="matrix(33.7,0,0,33.7,1311.26,373.073)">
            <path d="M0.152,-0.449L0.152,-0.392C0.192,-0.436 0.237,-0.458 0.287,-0.458C0.315,-0.458 0.341,-0.451 0.365,-0.436C0.389,-0.422 0.408,-0.402 0.42,-0.377C0.433,-0.351 0.439,-0.312 0.439,-0.257L0.439,-0L0.35,-0L0.35,-0.256C0.35,-0.302 0.343,-0.335 0.329,-0.354C0.315,-0.374 0.292,-0.384 0.259,-0.384C0.217,-0.384 0.181,-0.363 0.152,-0.321L0.152,-0L0.061,-0L0.061,-0.449L0.152,-0.449Z" class="path-fill"/>
        </g>
        <g transform="matrix(33.7,0,0,33.7,1337.48,373.073)">
            <path d="M0.692,-0.682L0.692,-0.557L0.445,-0.557L0.445,-0L0.275,-0L0.275,-0.557L0.028,-0.557L0.028,-0.682L0.692,-0.682Z" class="path-fill"/>
        </g>
        <g transform="matrix(33.7,0,0,33.7,1361.71,373.073)">
            <path d="M0.278,-0.45C0.346,-0.45 0.403,-0.428 0.448,-0.384C0.493,-0.34 0.516,-0.285 0.516,-0.218C0.516,-0.153 0.493,-0.099 0.447,-0.056C0.401,-0.014 0.344,0.008 0.274,0.008C0.207,0.008 0.15,-0.014 0.105,-0.057C0.06,-0.101 0.037,-0.155 0.037,-0.22C0.037,-0.286 0.06,-0.341 0.106,-0.385C0.151,-0.428 0.209,-0.45 0.278,-0.45ZM0.273,-0.37C0.23,-0.37 0.195,-0.356 0.168,-0.328C0.141,-0.3 0.127,-0.264 0.127,-0.221C0.127,-0.178 0.141,-0.143 0.169,-0.116C0.197,-0.089 0.233,-0.075 0.277,-0.075C0.32,-0.075 0.356,-0.089 0.384,-0.116C0.412,-0.144 0.426,-0.179 0.426,-0.222C0.426,-0.265 0.411,-0.3 0.382,-0.328C0.353,-0.356 0.317,-0.37 0.273,-0.37Z" class="path-fill"/>
        </g>
        <g transform="matrix(33.7,0,0,33.7,1380.31,373.073)">
            <path d="M0.278,-0.45C0.346,-0.45 0.403,-0.428 0.448,-0.384C0.493,-0.34 0.516,-0.285 0.516,-0.218C0.516,-0.153 0.493,-0.099 0.447,-0.056C0.401,-0.014 0.344,0.008 0.274,0.008C0.207,0.008 0.15,-0.014 0.105,-0.057C0.06,-0.101 0.037,-0.155 0.037,-0.22C0.037,-0.286 0.06,-0.341 0.106,-0.385C0.151,-0.428 0.209,-0.45 0.278,-0.45ZM0.273,-0.37C0.23,-0.37 0.195,-0.356 0.168,-0.328C0.141,-0.3 0.127,-0.264 0.127,-0.221C0.127,-0.178 0.141,-0.143 0.169,-0.116C0.197,-0.089 0.233,-0.075 0.277,-0.075C0.32,-0.075 0.356,-0.089 0.384,-0.116C0.412,-0.144 0.426,-0.179 0.426,-0.222C0.426,-0.265 0.411,-0.3 0.382,-0.328C0.353,-0.356 0.317,-0.37 0.273,-0.37Z" class="path-fill"/>
        </g>
        <g transform="matrix(33.7,0,0,33.7,1398.9,373.073)">
            <rect x="0.065" y="-0.682" width="0.089" height="0.682" class="rect-fill"/>
        </g>
    </g>
</svg>
