<?xml version="1.0" encoding="UTF-8" standalone="no"?>
<!DOCTYPE svg PUBLIC "-//W3C//DTD SVG 1.1//EN" "http://www.w3.org/Graphics/SVG/1.1/DTD/svg11.dtd">
<svg width="100%" height="100%" viewBox="0 0 1788 727" version="1.1" xmlns="http://www.w3.org/2000/svg" xmlns:xlink="http://www.w3.org/1999/xlink" xml:space="preserve" xmlns:serif="http://www.serif.com/" style="fill-rule:evenodd;clip-rule:evenodd;">
    <g transform="matrix(4.16667,0,0,4.16667,-345.33,-352.894)">
        <clipPath id="_clip1">
            <rect x="85.039" y="85.039" width="425.212" height="174.183" clip-rule="nonzero"/>
        </clipPath>
        <g clip-path="url(#_clip1)">
            <g transform="matrix(0.85384,0,0,0.85384,85.039,84.8619)">
                <rect x="0" y="0.207" width="498" height="203.792" style="fill:white;"/>
            </g>
            <g>
                <clipPath id="_clip2">
                    <rect x="85.039" y="85.039" width="425.212" height="173.394"/>
                </clipPath>
                <g clip-path="url(#_clip2)">
                    <g transform="matrix(0.85384,0,0,0.85384,85.039,84.2488)">
                        <rect x="1.076" y="2.001" width="495.13" height="200.922" style="fill:white;stroke:black;stroke-width:0.72px;"/>
                    </g>
                    <g transform="matrix(0.85384,0,0,0.85384,85.039,219.042)">
                        <path d="M15.758,9.177L324.002,9.177C324.285,9.177 324.565,9.205 324.842,9.26C325.12,9.315 325.389,9.397 325.65,9.505C325.911,9.613 326.159,9.746 326.394,9.903C326.629,10.06 326.847,10.238 327.047,10.438C327.247,10.638 327.425,10.856 327.582,11.091C327.739,11.326 327.872,11.574 327.98,11.835C328.088,12.096 328.17,12.365 328.225,12.643C328.28,12.92 328.308,13.2 328.308,13.483L328.308,33.575C328.308,33.858 328.28,34.137 328.225,34.415C328.17,34.692 328.088,34.961 327.98,35.222C327.872,35.484 327.739,35.732 327.582,35.967C327.425,36.202 327.247,36.419 327.047,36.619C326.847,36.819 326.629,36.998 326.394,37.155C326.159,37.312 325.911,37.444 325.65,37.553C325.389,37.661 325.12,37.742 324.842,37.798C324.565,37.853 324.285,37.88 324.002,37.88L15.758,37.88C15.475,37.88 15.195,37.853 14.918,37.798C14.641,37.742 14.372,37.661 14.11,37.553C13.849,37.444 13.601,37.312 13.366,37.155C13.131,36.998 12.914,36.819 12.714,36.619C12.514,36.419 12.335,36.202 12.178,35.967C12.021,35.732 11.889,35.484 11.78,35.222C11.672,34.961 11.59,34.692 11.535,34.415C11.48,34.137 11.453,33.858 11.453,33.575L11.453,13.483C11.453,13.2 11.48,12.92 11.535,12.643C11.59,12.365 11.672,12.096 11.78,11.835C11.889,11.574 12.021,11.326 12.178,11.091C12.335,10.856 12.514,10.638 12.714,10.438C12.914,10.238 13.131,10.06 13.366,9.903C13.601,9.746 13.849,9.613 14.11,9.505C14.372,9.397 14.641,9.315 14.918,9.26C15.195,9.205 15.475,9.177 15.758,9.177Z" style="fill:rgb(248,206,204);fill-rule:nonzero;stroke:rgb(184,84,80);stroke-width:0.72px;"/>
                    </g>
                    <g transform="matrix(0.85384,0,0,0.85384,85.039,219.042)">
                        <path d="M338.284,9.177L428.593,9.177C428.875,9.177 429.155,9.205 429.433,9.26C429.71,9.315 429.979,9.397 430.24,9.505C430.501,9.613 430.75,9.746 430.985,9.903C431.22,10.06 431.437,10.238 431.637,10.438C431.837,10.638 432.016,10.856 432.173,11.091C432.33,11.326 432.462,11.574 432.57,11.835C432.679,12.096 432.76,12.365 432.815,12.643C432.871,12.92 432.898,13.2 432.898,13.483L432.898,33.575C432.898,33.858 432.871,34.137 432.815,34.415C432.76,34.692 432.679,34.961 432.57,35.222C432.462,35.484 432.33,35.732 432.173,35.967C432.016,36.202 431.837,36.419 431.637,36.619C431.437,36.819 431.22,36.998 430.985,37.155C430.75,37.312 430.501,37.444 430.24,37.553C429.979,37.661 429.71,37.742 429.433,37.798C429.155,37.853 428.875,37.88 428.593,37.88L338.284,37.88C338.002,37.88 337.722,37.853 337.444,37.798C337.167,37.742 336.898,37.661 336.637,37.553C336.376,37.444 336.127,37.312 335.892,37.155C335.657,36.998 335.44,36.819 335.24,36.619C335.04,36.419 334.862,36.202 334.704,35.967C334.547,35.732 334.415,35.484 334.307,35.222C334.198,34.961 334.117,34.692 334.062,34.415C334.006,34.137 333.979,33.858 333.979,33.575L333.979,13.483C333.979,13.2 334.006,12.92 334.062,12.643C334.117,12.365 334.198,12.096 334.307,11.835C334.415,11.574 334.547,11.326 334.704,11.091C334.862,10.856 335.04,10.638 335.24,10.438C335.44,10.238 335.657,10.06 335.892,9.903C336.127,9.746 336.376,9.613 336.637,9.505C336.898,9.397 337.167,9.315 337.444,9.26C337.722,9.205 338.002,9.177 338.284,9.177Z" style="fill:rgb(217,232,252);fill-rule:nonzero;stroke:rgb(110,144,191);stroke-width:0.72px;"/>
                    </g>
                    <g transform="matrix(-0.85384,0,0,0.85384,509.639,-13.7831)">
                        <path d="M1.076,159.869L496.206,159.869" style="fill:none;fill-rule:nonzero;stroke:black;stroke-width:0.72px;stroke-miterlimit:10;"/>
                    </g>
                    <g transform="matrix(0.85384,0,0,0.85384,85.039,84.2488)">
                        <path d="M12.5,52.232L102.915,52.232C103.245,52.232 103.572,52.264 103.895,52.328C104.219,52.393 104.533,52.488 104.837,52.614C105.142,52.74 105.432,52.895 105.706,53.078C105.98,53.262 106.234,53.47 106.467,53.703C106.7,53.936 106.908,54.19 107.092,54.464C107.275,54.739 107.43,55.028 107.556,55.333C107.682,55.637 107.777,55.952 107.842,56.275C107.906,56.598 107.938,56.925 107.938,57.255L107.938,147.67C107.938,148 107.906,148.326 107.842,148.65C107.777,148.973 107.682,149.288 107.556,149.592C107.43,149.897 107.275,150.186 107.092,150.461C106.908,150.735 106.7,150.989 106.467,151.222C106.234,151.455 105.98,151.663 105.706,151.846C105.432,152.03 105.142,152.184 104.837,152.311C104.533,152.437 104.219,152.532 103.895,152.597C103.572,152.661 103.245,152.693 102.915,152.693L12.5,152.693C12.17,152.693 11.844,152.661 11.52,152.597C11.197,152.532 10.883,152.437 10.578,152.311C10.273,152.184 9.984,152.03 9.71,151.846C9.435,151.663 9.182,151.455 8.948,151.222C8.715,150.989 8.507,150.735 8.324,150.461C8.14,150.186 7.986,149.897 7.859,149.592C7.733,149.288 7.638,148.973 7.574,148.65C7.509,148.326 7.477,148 7.477,147.67L7.477,57.255C7.477,56.925 7.509,56.598 7.574,56.275C7.638,55.952 7.733,55.637 7.859,55.333C7.986,55.028 8.14,54.739 8.324,54.464C8.507,54.19 8.715,53.936 8.948,53.703C9.182,53.47 9.435,53.262 9.71,53.078C9.984,52.895 10.273,52.74 10.578,52.614C10.883,52.488 11.197,52.393 11.52,52.328C11.844,52.264 12.17,52.232 12.5,52.232Z" style="fill:rgb(204,204,204);fill-rule:nonzero;"/>
                    </g>
                    <g transform="matrix(0.85384,0,0,0.85384,85.039,59.7402)">
                        <path d="M15.371,102.463L100.045,102.463C100.328,102.463 100.608,102.491 100.885,102.546C101.162,102.601 101.431,102.683 101.693,102.791C101.954,102.899 102.202,103.032 102.437,103.189C102.672,103.346 102.889,103.524 103.089,103.724C103.289,103.924 103.468,104.142 103.625,104.377C103.782,104.612 103.914,104.86 104.023,105.121C104.131,105.382 104.212,105.652 104.268,105.929C104.323,106.206 104.35,106.486 104.35,106.769L104.35,126.861C104.35,127.144 104.323,127.424 104.268,127.701C104.212,127.978 104.131,128.247 104.023,128.509C103.914,128.77 103.782,129.018 103.625,129.253C103.468,129.488 103.289,129.706 103.089,129.905C102.889,130.105 102.672,130.284 102.437,130.441C102.202,130.598 101.954,130.731 101.693,130.839C101.431,130.947 101.162,131.029 100.885,131.084C100.608,131.139 100.328,131.166 100.045,131.166L15.371,131.166C15.088,131.166 14.808,131.139 14.531,131.084C14.253,131.029 13.984,130.947 13.723,130.839C13.462,130.731 13.214,130.598 12.979,130.441C12.743,130.284 12.526,130.105 12.326,129.905C12.126,129.706 11.948,129.488 11.791,129.253C11.634,129.018 11.501,128.77 11.393,128.509C11.285,128.247 11.203,127.978 11.148,127.701C11.093,127.424 11.065,127.144 11.065,126.861L11.065,106.769C11.065,106.486 11.093,106.206 11.148,105.929C11.203,105.652 11.285,105.382 11.393,105.121C11.501,104.86 11.634,104.612 11.791,104.377C11.948,104.142 12.126,103.924 12.326,103.724C12.526,103.524 12.743,103.346 12.979,103.189C13.214,103.032 13.462,102.899 13.723,102.791C13.984,102.683 14.253,102.601 14.531,102.546C14.808,102.491 15.088,102.463 15.371,102.463Z" style="fill:rgb(255,242,204);fill-rule:nonzero;stroke:rgb(214,182,86);stroke-width:0.72px;"/>
                    </g>
                    <g transform="matrix(0.85384,0,0,0.85384,85.039,133.265)">
                        <path d="M15.371,59.408L49.814,59.408C50.097,59.408 50.377,59.435 50.654,59.491C50.932,59.546 51.201,59.627 51.462,59.736C51.723,59.844 51.971,59.976 52.206,60.133C52.441,60.291 52.659,60.469 52.859,60.669C53.059,60.869 53.237,61.086 53.394,61.321C53.551,61.556 53.684,61.804 53.792,62.066C53.9,62.327 53.982,62.596 54.037,62.873C54.092,63.151 54.12,63.431 54.12,63.713L54.12,83.806C54.12,84.088 54.092,84.368 54.037,84.646C53.982,84.923 53.9,85.192 53.792,85.453C53.684,85.714 53.551,85.963 53.394,86.197C53.237,86.433 53.059,86.65 52.859,86.85C52.659,87.05 52.441,87.228 52.206,87.385C51.971,87.542 51.723,87.675 51.462,87.783C51.201,87.891 50.932,87.973 50.654,88.028C50.377,88.083 50.097,88.111 49.814,88.111L15.371,88.111C15.088,88.111 14.808,88.083 14.531,88.028C14.253,87.973 13.984,87.891 13.723,87.783C13.462,87.675 13.214,87.542 12.979,87.385C12.743,87.228 12.526,87.05 12.326,86.85C12.126,86.65 11.948,86.433 11.791,86.197C11.634,85.963 11.501,85.714 11.393,85.453C11.285,85.192 11.203,84.923 11.148,84.646C11.093,84.368 11.065,84.088 11.065,83.806L11.065,63.713C11.065,63.431 11.093,63.151 11.148,62.873C11.203,62.596 11.285,62.327 11.393,62.066C11.501,61.804 11.634,61.556 11.791,61.321C11.948,61.086 12.126,60.869 12.326,60.669C12.526,60.469 12.743,60.291 12.979,60.133C13.214,59.976 13.462,59.844 13.723,59.736C13.984,59.627 14.253,59.546 14.531,59.491C14.808,59.435 15.088,59.408 15.371,59.408Z" style="fill:rgb(225,213,231);fill-rule:nonzero;stroke:rgb(150,115,166);stroke-width:0.72px;"/>
                    </g>
                    <g transform="matrix(0.85384,0,0,0.85384,85.039,133.265)">
                        <path d="M65.601,59.408L100.045,59.408C100.328,59.408 100.608,59.435 100.885,59.491C101.162,59.546 101.431,59.627 101.693,59.736C101.954,59.844 102.202,59.976 102.437,60.133C102.672,60.291 102.889,60.469 103.089,60.669C103.289,60.869 103.468,61.086 103.625,61.321C103.782,61.556 103.914,61.804 104.023,62.066C104.131,62.327 104.212,62.596 104.268,62.873C104.323,63.151 104.35,63.431 104.35,63.713L104.35,83.806C104.35,84.088 104.323,84.368 104.268,84.646C104.212,84.923 104.131,85.192 104.023,85.453C103.914,85.714 103.782,85.963 103.625,86.197C103.468,86.433 103.289,86.65 103.089,86.85C102.889,87.05 102.672,87.228 102.437,87.385C102.202,87.542 101.954,87.675 101.693,87.783C101.431,87.891 101.162,87.973 100.885,88.028C100.608,88.083 100.328,88.111 100.045,88.111L65.601,88.111C65.318,88.111 65.038,88.083 64.761,88.028C64.484,87.973 64.215,87.891 63.953,87.783C63.692,87.675 63.444,87.542 63.209,87.385C62.974,87.228 62.757,87.05 62.557,86.85C62.357,86.65 62.178,86.433 62.021,86.197C61.864,85.963 61.732,85.714 61.623,85.453C61.515,85.192 61.434,84.923 61.378,84.646C61.323,84.368 61.296,84.088 61.296,83.806L61.296,63.713C61.296,63.431 61.323,63.151 61.378,62.873C61.434,62.596 61.515,62.327 61.623,62.066C61.732,61.804 61.864,61.556 62.021,61.321C62.178,61.086 62.357,60.869 62.557,60.669C62.757,60.469 62.974,60.291 63.209,60.133C63.444,59.976 63.692,59.844 63.953,59.736C64.215,59.627 64.484,59.546 64.761,59.491C65.038,59.435 65.318,59.408 65.601,59.408Z" style="fill:rgb(218,232,252);fill-rule:nonzero;stroke:rgb(108,142,191);stroke-width:0.72px;"/>
                    </g>
                    <g transform="matrix(0.85384,0,0,0.85384,85.039,84.2488)">
                        <path d="M120.195,52.232L210.609,52.232C210.939,52.232 211.266,52.264 211.589,52.328C211.913,52.393 212.227,52.488 212.532,52.614C212.836,52.74 213.126,52.895 213.4,53.078C213.674,53.262 213.928,53.47 214.161,53.703C214.395,53.936 214.603,54.19 214.786,54.464C214.969,54.739 215.124,55.028 215.25,55.333C215.376,55.637 215.472,55.952 215.536,56.275C215.6,56.598 215.633,56.925 215.633,57.255L215.633,147.67C215.633,148 215.6,148.326 215.536,148.65C215.472,148.973 215.376,149.288 215.25,149.592C215.124,149.897 214.969,150.186 214.786,150.461C214.603,150.735 214.395,150.989 214.161,151.222C213.928,151.455 213.674,151.663 213.4,151.846C213.126,152.03 212.836,152.184 212.532,152.311C212.227,152.437 211.913,152.532 211.589,152.597C211.266,152.661 210.939,152.693 210.609,152.693L120.195,152.693C119.865,152.693 119.538,152.661 119.215,152.597C118.891,152.532 118.577,152.437 118.272,152.311C117.968,152.184 117.678,152.03 117.404,151.846C117.13,151.663 116.876,151.455 116.643,151.222C116.409,150.989 116.201,150.735 116.018,150.461C115.835,150.186 115.68,149.897 115.554,149.592C115.428,149.288 115.332,148.973 115.268,148.65C115.204,148.326 115.171,148 115.171,147.67L115.171,57.255C115.171,56.925 115.204,56.598 115.268,56.275C115.332,55.952 115.428,55.637 115.554,55.333C115.68,55.028 115.835,54.739 116.018,54.464C116.201,54.19 116.409,53.936 116.643,53.703C116.876,53.47 117.13,53.262 117.404,53.078C117.678,52.895 117.968,52.74 118.272,52.614C118.577,52.488 118.891,52.393 119.215,52.328C119.538,52.264 119.865,52.232 120.195,52.232Z" style="fill:rgb(204,204,204);fill-rule:nonzero;"/>
                    </g>
                    <g transform="matrix(0.85384,0,0,0.85384,85.039,59.7402)">
                        <path d="M123.007,102.463L207.682,102.463C207.964,102.463 208.244,102.491 208.522,102.546C208.799,102.601 209.068,102.683 209.329,102.791C209.591,102.899 209.839,103.032 210.074,103.189C210.309,103.346 210.526,103.524 210.726,103.724C210.926,103.924 211.105,104.142 211.262,104.377C211.419,104.612 211.551,104.86 211.659,105.121C211.768,105.382 211.849,105.652 211.904,105.929C211.96,106.206 211.987,106.486 211.987,106.769L211.987,126.861C211.987,127.144 211.96,127.424 211.904,127.701C211.849,127.978 211.768,128.247 211.659,128.509C211.551,128.77 211.419,129.018 211.262,129.253C211.105,129.488 210.926,129.706 210.726,129.905C210.526,130.105 210.309,130.284 210.074,130.441C209.839,130.598 209.591,130.731 209.329,130.839C209.068,130.947 208.799,131.029 208.522,131.084C208.244,131.139 207.964,131.166 207.682,131.166L123.007,131.166C122.725,131.166 122.445,131.139 122.167,131.084C121.89,131.029 121.621,130.947 121.36,130.839C121.099,130.731 120.85,130.598 120.615,130.441C120.38,130.284 120.163,130.105 119.963,129.905C119.763,129.706 119.585,129.488 119.428,129.253C119.27,129.018 119.138,128.77 119.03,128.509C118.921,128.247 118.84,127.978 118.785,127.701C118.73,127.424 118.702,127.144 118.702,126.861L118.702,106.769C118.702,106.486 118.73,106.206 118.785,105.929C118.84,105.652 118.921,105.382 119.03,105.121C119.138,104.86 119.27,104.612 119.428,104.377C119.585,104.142 119.763,103.924 119.963,103.724C120.163,103.524 120.38,103.346 120.615,103.189C120.85,103.032 121.099,102.899 121.36,102.791C121.621,102.683 121.89,102.601 122.167,102.546C122.445,102.491 122.725,102.463 123.007,102.463Z" style="fill:rgb(255,242,204);fill-rule:nonzero;stroke:rgb(214,182,86);stroke-width:0.72px;"/>
                    </g>
                    <g transform="matrix(0.85384,0,0,0.85384,85.039,133.265)">
                        <path d="M123.007,59.408L157.451,59.408C157.734,59.408 158.014,59.435 158.291,59.491C158.568,59.546 158.838,59.627 159.099,59.736C159.36,59.844 159.608,59.976 159.843,60.133C160.078,60.291 160.296,60.469 160.496,60.669C160.696,60.869 160.874,61.086 161.031,61.321C161.188,61.556 161.321,61.804 161.429,62.066C161.537,62.327 161.619,62.596 161.674,62.873C161.729,63.151 161.757,63.431 161.757,63.713L161.757,83.806C161.757,84.088 161.729,84.368 161.674,84.646C161.619,84.923 161.537,85.192 161.429,85.453C161.321,85.714 161.188,85.963 161.031,86.197C160.874,86.433 160.696,86.65 160.496,86.85C160.296,87.05 160.078,87.228 159.843,87.385C159.608,87.542 159.36,87.675 159.099,87.783C158.838,87.891 158.568,87.973 158.291,88.028C158.014,88.083 157.734,88.111 157.451,88.111L123.007,88.111C122.725,88.111 122.445,88.083 122.167,88.028C121.89,87.973 121.621,87.891 121.36,87.783C121.099,87.675 120.85,87.542 120.615,87.385C120.38,87.228 120.163,87.05 119.963,86.85C119.763,86.65 119.585,86.433 119.428,86.197C119.27,85.963 119.138,85.714 119.03,85.453C118.921,85.192 118.84,84.923 118.785,84.646C118.73,84.368 118.702,84.088 118.702,83.806L118.702,63.713C118.702,63.431 118.73,63.151 118.785,62.873C118.84,62.596 118.921,62.327 119.03,62.066C119.138,61.804 119.27,61.556 119.428,61.321C119.585,61.086 119.763,60.869 119.963,60.669C120.163,60.469 120.38,60.291 120.615,60.133C120.85,59.976 121.099,59.844 121.36,59.736C121.621,59.627 121.89,59.546 122.167,59.491C122.445,59.435 122.725,59.408 123.007,59.408Z" style="fill:rgb(225,213,231);fill-rule:nonzero;stroke:rgb(150,115,166);stroke-width:0.72px;"/>
                    </g>
                    <g transform="matrix(0.85384,0,0,0.85384,85.039,133.265)">
                        <path d="M173.238,59.408L207.682,59.408C207.964,59.408 208.244,59.435 208.522,59.491C208.799,59.546 209.068,59.627 209.329,59.736C209.591,59.844 209.839,59.976 210.074,60.133C210.309,60.291 210.526,60.469 210.726,60.669C210.926,60.869 211.105,61.086 211.262,61.321C211.419,61.556 211.551,61.804 211.659,62.066C211.768,62.327 211.849,62.596 211.904,62.873C211.96,63.151 211.987,63.431 211.987,63.713L211.987,83.806C211.987,84.088 211.96,84.368 211.904,84.646C211.849,84.923 211.768,85.192 211.659,85.453C211.551,85.714 211.419,85.963 211.262,86.197C211.105,86.433 210.926,86.65 210.726,86.85C210.526,87.05 210.309,87.228 210.074,87.385C209.839,87.542 209.591,87.675 209.329,87.783C209.068,87.891 208.799,87.973 208.522,88.028C208.244,88.083 207.964,88.111 207.682,88.111L173.238,88.111C172.955,88.111 172.675,88.083 172.398,88.028C172.121,87.973 171.851,87.891 171.59,87.783C171.329,87.675 171.081,87.542 170.846,87.385C170.611,87.228 170.393,87.05 170.194,86.85C169.994,86.65 169.815,86.433 169.658,86.197C169.501,85.963 169.368,85.714 169.26,85.453C169.152,85.192 169.07,84.923 169.015,84.646C168.96,84.368 168.932,84.088 168.932,83.806L168.932,63.713C168.932,63.431 168.96,63.151 169.015,62.873C169.07,62.596 169.152,62.327 169.26,62.066C169.368,61.804 169.501,61.556 169.658,61.321C169.815,61.086 169.994,60.869 170.194,60.669C170.393,60.469 170.611,60.291 170.846,60.133C171.081,59.976 171.329,59.844 171.59,59.736C171.851,59.627 172.121,59.546 172.398,59.491C172.675,59.435 172.955,59.408 173.238,59.408Z" style="fill:rgb(218,232,252);fill-rule:nonzero;stroke:rgb(108,142,191);stroke-width:0.72px;"/>
                    </g>
                    <g transform="matrix(0.85384,0,0,0.85384,85.039,84.2488)">
                        <path d="M228.549,52.232L318.964,52.232C319.294,52.232 319.62,52.264 319.944,52.328C320.267,52.393 320.581,52.488 320.886,52.614C321.191,52.74 321.48,52.895 321.755,53.078C322.029,53.262 322.283,53.47 322.516,53.703C322.749,53.936 322.957,54.19 323.14,54.464C323.324,54.739 323.478,55.028 323.605,55.333C323.731,55.637 323.826,55.952 323.89,56.275C323.955,56.598 323.987,56.925 323.987,57.255L323.987,147.67C323.987,148 323.955,148.326 323.89,148.65C323.826,148.973 323.731,149.288 323.605,149.592C323.478,149.897 323.324,150.186 323.14,150.461C322.957,150.735 322.749,150.989 322.516,151.222C322.283,151.455 322.029,151.663 321.755,151.846C321.48,152.03 321.191,152.184 320.886,152.311C320.581,152.437 320.267,152.532 319.944,152.597C319.62,152.661 319.294,152.693 318.964,152.693L228.549,152.693C228.219,152.693 227.892,152.661 227.569,152.597C227.246,152.532 226.931,152.437 226.627,152.311C226.322,152.184 226.033,152.03 225.758,151.846C225.484,151.663 225.23,151.455 224.997,151.222C224.764,150.989 224.556,150.735 224.372,150.461C224.189,150.186 224.034,149.897 223.908,149.592C223.782,149.288 223.687,148.973 223.622,148.65C223.558,148.326 223.526,148 223.526,147.67L223.526,57.255C223.526,56.925 223.558,56.598 223.622,56.275C223.687,55.952 223.782,55.637 223.908,55.333C224.034,55.028 224.189,54.739 224.372,54.464C224.556,54.19 224.764,53.936 224.997,53.703C225.23,53.47 225.484,53.262 225.758,53.078C226.033,52.895 226.322,52.74 226.627,52.614C226.931,52.488 227.246,52.393 227.569,52.328C227.892,52.264 228.219,52.232 228.549,52.232Z" style="fill:rgb(204,204,204);fill-rule:nonzero;"/>
                    </g>
                    <g transform="matrix(0.85384,0,0,0.85384,85.039,59.7402)">
                        <path d="M231.419,102.463L316.094,102.463C316.376,102.463 316.656,102.491 316.934,102.546C317.211,102.601 317.48,102.683 317.741,102.791C318.002,102.899 318.251,103.032 318.486,103.189C318.721,103.346 318.938,103.524 319.138,103.724C319.338,103.924 319.516,104.142 319.673,104.377C319.831,104.612 319.963,104.86 320.071,105.121C320.18,105.382 320.261,105.652 320.316,105.929C320.372,106.206 320.399,106.486 320.399,106.769L320.399,126.861C320.399,127.144 320.372,127.424 320.316,127.701C320.261,127.978 320.18,128.247 320.071,128.509C319.963,128.77 319.831,129.018 319.673,129.253C319.516,129.488 319.338,129.706 319.138,129.905C318.938,130.105 318.721,130.284 318.486,130.441C318.251,130.598 318.002,130.731 317.741,130.839C317.48,130.947 317.211,131.029 316.934,131.084C316.656,131.139 316.376,131.166 316.094,131.166L231.419,131.166C231.137,131.166 230.857,131.139 230.579,131.084C230.302,131.029 230.033,130.947 229.772,130.839C229.51,130.731 229.262,130.598 229.027,130.441C228.792,130.284 228.575,130.105 228.375,129.905C228.175,129.706 227.996,129.488 227.839,129.253C227.682,129.018 227.55,128.77 227.442,128.509C227.333,128.247 227.252,127.978 227.197,127.701C227.141,127.424 227.114,127.144 227.114,126.861L227.114,106.769C227.114,106.486 227.141,106.206 227.197,105.929C227.252,105.652 227.333,105.382 227.442,105.121C227.55,104.86 227.682,104.612 227.839,104.377C227.996,104.142 228.175,103.924 228.375,103.724C228.575,103.524 228.792,103.346 229.027,103.189C229.262,103.032 229.51,102.899 229.772,102.791C230.033,102.683 230.302,102.601 230.579,102.546C230.857,102.491 231.137,102.463 231.419,102.463Z" style="fill:rgb(255,242,204);fill-rule:nonzero;stroke:rgb(214,182,86);stroke-width:0.72px;"/>
                    </g>
                    <g transform="matrix(0.85384,0,0,0.85384,85.039,133.265)">
                        <path d="M231.419,59.408L265.863,59.408C266.146,59.408 266.426,59.435 266.703,59.491C266.98,59.546 267.25,59.627 267.511,59.736C267.772,59.844 268.02,59.976 268.255,60.133C268.49,60.291 268.708,60.469 268.908,60.669C269.107,60.869 269.286,61.086 269.443,61.321C269.6,61.556 269.733,61.804 269.841,62.066C269.949,62.327 270.031,62.596 270.086,62.873C270.141,63.151 270.169,63.431 270.169,63.713L270.169,83.806C270.169,84.088 270.141,84.368 270.086,84.646C270.031,84.923 269.949,85.192 269.841,85.453C269.733,85.714 269.6,85.963 269.443,86.197C269.286,86.433 269.107,86.65 268.908,86.85C268.708,87.05 268.49,87.228 268.255,87.385C268.02,87.542 267.772,87.675 267.511,87.783C267.25,87.891 266.98,87.973 266.703,88.028C266.426,88.083 266.146,88.111 265.863,88.111L231.419,88.111C231.137,88.111 230.857,88.083 230.579,88.028C230.302,87.973 230.033,87.891 229.772,87.783C229.51,87.675 229.262,87.542 229.027,87.385C228.792,87.228 228.575,87.05 228.375,86.85C228.175,86.65 227.996,86.433 227.839,86.197C227.682,85.963 227.55,85.714 227.442,85.453C227.333,85.192 227.252,84.923 227.197,84.646C227.141,84.368 227.114,84.088 227.114,83.806L227.114,63.713C227.114,63.431 227.141,63.151 227.197,62.873C227.252,62.596 227.333,62.327 227.442,62.066C227.55,61.804 227.682,61.556 227.839,61.321C227.996,61.086 228.175,60.869 228.375,60.669C228.575,60.469 228.792,60.291 229.027,60.133C229.262,59.976 229.51,59.844 229.772,59.736C230.033,59.627 230.302,59.546 230.579,59.491C230.857,59.435 231.137,59.408 231.419,59.408Z" style="fill:rgb(225,213,231);fill-rule:nonzero;stroke:rgb(150,115,166);stroke-width:0.72px;"/>
                    </g>
                    <g transform="matrix(0.85384,0,0,0.85384,85.039,133.265)">
                        <path d="M281.65,59.408L316.094,59.408C316.376,59.408 316.656,59.435 316.934,59.491C317.211,59.546 317.48,59.627 317.741,59.736C318.002,59.844 318.251,59.976 318.486,60.133C318.721,60.291 318.938,60.469 319.138,60.669C319.338,60.869 319.516,61.086 319.673,61.321C319.831,61.556 319.963,61.804 320.071,62.066C320.18,62.327 320.261,62.596 320.316,62.873C320.372,63.151 320.399,63.431 320.399,63.713L320.399,83.806C320.399,84.088 320.372,84.368 320.316,84.646C320.261,84.923 320.18,85.192 320.071,85.453C319.963,85.714 319.831,85.963 319.673,86.197C319.516,86.433 319.338,86.65 319.138,86.85C318.938,87.05 318.721,87.228 318.486,87.385C318.251,87.542 318.002,87.675 317.741,87.783C317.48,87.891 317.211,87.973 316.934,88.028C316.656,88.083 316.376,88.111 316.094,88.111L281.65,88.111C281.367,88.111 281.087,88.083 280.81,88.028C280.533,87.973 280.263,87.891 280.002,87.783C279.741,87.675 279.493,87.542 279.258,87.385C279.023,87.228 278.805,87.05 278.605,86.85C278.405,86.65 278.227,86.433 278.07,86.197C277.913,85.963 277.78,85.714 277.672,85.453C277.564,85.192 277.482,84.923 277.427,84.646C277.372,84.368 277.344,84.088 277.344,83.806L277.344,63.713C277.344,63.431 277.372,63.151 277.427,62.873C277.482,62.596 277.564,62.327 277.672,62.066C277.78,61.804 277.913,61.556 278.07,61.321C278.227,61.086 278.405,60.869 278.605,60.669C278.805,60.469 279.023,60.291 279.258,60.133C279.493,59.976 279.741,59.844 280.002,59.736C280.263,59.627 280.533,59.546 280.81,59.491C281.087,59.435 281.367,59.408 281.65,59.408Z" style="fill:rgb(218,232,252);fill-rule:nonzero;stroke:rgb(108,142,191);stroke-width:0.72px;"/>
                    </g>
                    <g transform="matrix(0.85384,0,0,0.85384,85.039,84.2488)">
                        <path d="M336.186,52.232L426.601,52.232C426.931,52.232 427.257,52.264 427.581,52.328C427.904,52.393 428.218,52.488 428.523,52.614C428.828,52.74 429.117,52.895 429.391,53.078C429.666,53.262 429.919,53.47 430.153,53.703C430.386,53.936 430.594,54.19 430.777,54.464C430.961,54.739 431.115,55.028 431.242,55.333C431.368,55.637 431.463,55.952 431.527,56.275C431.592,56.598 431.624,56.925 431.624,57.255L431.624,147.67C431.624,148 431.592,148.326 431.527,148.65C431.463,148.973 431.368,149.288 431.242,149.592C431.115,149.897 430.961,150.186 430.777,150.461C430.594,150.735 430.386,150.989 430.153,151.222C429.919,151.455 429.666,151.663 429.391,151.846C429.117,152.03 428.828,152.184 428.523,152.311C428.218,152.437 427.904,152.532 427.581,152.597C427.257,152.661 426.931,152.693 426.601,152.693L336.186,152.693C335.856,152.693 335.529,152.661 335.206,152.597C334.882,152.532 334.568,152.437 334.264,152.311C333.959,152.184 333.669,152.03 333.395,151.846C333.121,151.663 332.867,151.455 332.634,151.222C332.401,150.989 332.193,150.735 332.009,150.461C331.826,150.186 331.671,149.897 331.545,149.592C331.419,149.288 331.324,148.973 331.259,148.65C331.195,148.326 331.163,148 331.163,147.67L331.163,57.255C331.163,56.925 331.195,56.598 331.259,56.275C331.324,55.952 331.419,55.637 331.545,55.333C331.671,55.028 331.826,54.739 332.009,54.464C332.193,54.19 332.401,53.936 332.634,53.703C332.867,53.47 333.121,53.262 333.395,53.078C333.669,52.895 333.959,52.74 334.264,52.614C334.568,52.488 334.882,52.393 335.206,52.328C335.529,52.264 335.856,52.232 336.186,52.232Z" style="fill:rgb(204,204,204);fill-rule:nonzero;"/>
                    </g>
                    <g transform="matrix(0.85384,0,0,0.85384,85.039,59.7402)">
                        <path d="M339.056,102.463L423.731,102.463C424.013,102.463 424.293,102.491 424.57,102.546C424.848,102.601 425.117,102.683 425.378,102.791C425.639,102.899 425.887,103.032 426.122,103.189C426.358,103.346 426.575,103.524 426.775,103.724C426.975,103.924 427.153,104.142 427.31,104.377C427.467,104.612 427.6,104.86 427.708,105.121C427.816,105.382 427.898,105.652 427.953,105.929C428.008,106.206 428.036,106.486 428.036,106.769L428.036,126.861C428.036,127.144 428.008,127.424 427.953,127.701C427.898,127.978 427.816,128.247 427.708,128.509C427.6,128.77 427.467,129.018 427.31,129.253C427.153,129.488 426.975,129.706 426.775,129.905C426.575,130.105 426.358,130.284 426.123,130.441C425.887,130.598 425.639,130.731 425.378,130.839C425.117,130.947 424.848,131.029 424.57,131.084C424.293,131.139 424.013,131.166 423.731,131.166L339.056,131.166C338.773,131.166 338.493,131.139 338.216,131.084C337.939,131.029 337.67,130.947 337.409,130.839C337.147,130.731 336.899,130.598 336.664,130.441C336.429,130.284 336.212,130.105 336.012,129.905C335.812,129.706 335.633,129.488 335.476,129.253C335.319,129.018 335.187,128.77 335.078,128.509C334.97,128.247 334.889,127.978 334.833,127.701C334.778,127.424 334.751,127.144 334.751,126.861L334.751,106.769C334.751,106.486 334.778,106.206 334.833,105.929C334.889,105.652 334.97,105.382 335.078,105.121C335.187,104.86 335.319,104.612 335.476,104.377C335.633,104.142 335.812,103.924 336.012,103.724C336.212,103.524 336.429,103.346 336.664,103.189C336.899,103.032 337.147,102.899 337.409,102.791C337.67,102.683 337.939,102.601 338.216,102.546C338.493,102.491 338.773,102.463 339.056,102.463Z" style="fill:rgb(255,242,204);fill-rule:nonzero;stroke:rgb(214,182,86);stroke-width:0.72px;"/>
                    </g>
                    <g transform="matrix(0.85384,0,0,0.85384,85.039,133.265)">
                        <path d="M339.056,59.408L373.5,59.408C373.783,59.408 374.063,59.435 374.34,59.491C374.617,59.546 374.886,59.627 375.148,59.736C375.409,59.844 375.657,59.976 375.892,60.133C376.127,60.291 376.344,60.469 376.544,60.669C376.744,60.869 376.923,61.086 377.08,61.321C377.237,61.556 377.369,61.804 377.478,62.066C377.586,62.327 377.668,62.596 377.723,62.873C377.778,63.151 377.805,63.431 377.805,63.713L377.805,83.806C377.805,84.088 377.778,84.368 377.723,84.646C377.668,84.923 377.586,85.192 377.478,85.453C377.369,85.714 377.237,85.963 377.08,86.197C376.923,86.433 376.744,86.65 376.544,86.85C376.344,87.05 376.127,87.228 375.892,87.385C375.657,87.542 375.409,87.675 375.148,87.783C374.886,87.891 374.617,87.973 374.34,88.028C374.063,88.083 373.783,88.111 373.5,88.111L339.056,88.111C338.773,88.111 338.493,88.083 338.216,88.028C337.939,87.973 337.67,87.891 337.409,87.783C337.147,87.675 336.899,87.542 336.664,87.385C336.429,87.228 336.212,87.05 336.012,86.85C335.812,86.65 335.633,86.433 335.476,86.197C335.319,85.963 335.187,85.714 335.078,85.453C334.97,85.192 334.889,84.923 334.833,84.646C334.778,84.368 334.751,84.088 334.751,83.806L334.751,63.713C334.751,63.431 334.778,63.151 334.833,62.873C334.889,62.596 334.97,62.327 335.078,62.066C335.187,61.804 335.319,61.556 335.476,61.321C335.633,61.086 335.812,60.869 336.012,60.669C336.212,60.469 336.429,60.291 336.664,60.133C336.899,59.976 337.147,59.844 337.409,59.736C337.67,59.627 337.939,59.546 338.216,59.491C338.493,59.435 338.773,59.408 339.056,59.408Z" style="fill:rgb(225,213,231);fill-rule:nonzero;stroke:rgb(150,115,166);stroke-width:0.72px;"/>
                    </g>
                    <g transform="matrix(0.85384,0,0,0.85384,85.039,133.265)">
                        <path d="M389.287,59.408L423.731,59.408C424.013,59.408 424.293,59.435 424.57,59.491C424.848,59.546 425.117,59.627 425.378,59.736C425.639,59.844 425.887,59.976 426.122,60.133C426.358,60.291 426.575,60.469 426.775,60.669C426.975,60.869 427.153,61.086 427.31,61.321C427.467,61.556 427.6,61.804 427.708,62.066C427.816,62.327 427.898,62.596 427.953,62.873C428.008,63.151 428.036,63.431 428.036,63.713L428.036,83.806C428.036,84.088 428.008,84.368 427.953,84.646C427.898,84.923 427.816,85.192 427.708,85.453C427.6,85.714 427.467,85.963 427.31,86.197C427.153,86.433 426.975,86.65 426.775,86.85C426.575,87.05 426.358,87.228 426.123,87.385C425.887,87.542 425.639,87.675 425.378,87.783C425.117,87.891 424.848,87.973 424.57,88.028C424.293,88.083 424.013,88.111 423.731,88.111L389.287,88.111C389.004,88.111 388.724,88.083 388.447,88.028C388.169,87.973 387.9,87.891 387.639,87.783C387.378,87.675 387.13,87.542 386.895,87.385C386.66,87.228 386.442,87.05 386.242,86.85C386.042,86.65 385.864,86.433 385.707,86.197C385.55,85.963 385.417,85.714 385.309,85.453C385.201,85.192 385.119,84.923 385.064,84.646C385.009,84.368 384.981,84.088 384.981,83.806L384.981,63.713C384.981,63.431 385.009,63.151 385.064,62.873C385.119,62.596 385.201,62.327 385.309,62.066C385.417,61.804 385.55,61.556 385.707,61.321C385.864,61.086 386.042,60.869 386.242,60.669C386.442,60.469 386.66,60.291 386.895,60.133C387.13,59.976 387.378,59.844 387.639,59.736C387.9,59.627 388.169,59.546 388.447,59.491C388.724,59.435 389.004,59.408 389.287,59.408Z" style="fill:rgb(218,232,252);fill-rule:nonzero;stroke:rgb(108,142,191);stroke-width:0.72px;"/>
                    </g>
                    <g transform="matrix(0.85384,0,0,0.85384,85.039,-50.5452)">
                        <path d="M15.758,167.045L423.731,167.045C424.013,167.045 424.293,167.073 424.57,167.128C424.848,167.183 425.117,167.265 425.378,167.373C425.639,167.481 425.887,167.614 426.122,167.771C426.358,167.928 426.575,168.106 426.775,168.306C426.975,168.506 427.153,168.724 427.31,168.959C427.467,169.194 427.6,169.442 427.708,169.703C427.816,169.964 427.898,170.233 427.953,170.511C428.008,170.788 428.036,171.068 428.036,171.351L428.036,191.443C428.036,191.726 428.008,192.006 427.953,192.283C427.898,192.56 427.816,192.829 427.708,193.09C427.6,193.352 427.467,193.6 427.31,193.835C427.153,194.07 426.975,194.287 426.775,194.487C426.575,194.687 426.358,194.866 426.123,195.023C425.887,195.18 425.639,195.312 425.378,195.421C425.117,195.529 424.848,195.61 424.57,195.666C424.293,195.721 424.013,195.748 423.731,195.748L15.758,195.748C15.475,195.748 15.195,195.721 14.918,195.666C14.641,195.61 14.372,195.529 14.11,195.421C13.849,195.312 13.601,195.18 13.366,195.023C13.131,194.866 12.914,194.687 12.714,194.487C12.514,194.287 12.335,194.07 12.178,193.835C12.021,193.6 11.889,193.352 11.78,193.09C11.672,192.829 11.59,192.56 11.535,192.283C11.48,192.006 11.453,191.726 11.453,191.443L11.453,171.351C11.453,171.068 11.48,170.788 11.535,170.511C11.59,170.233 11.672,169.964 11.78,169.703C11.889,169.442 12.021,169.194 12.178,168.959C12.335,168.724 12.514,168.506 12.714,168.306C12.914,168.106 13.131,167.928 13.366,167.771C13.601,167.614 13.849,167.481 14.11,167.373C14.372,167.265 14.641,167.183 14.918,167.128C15.195,167.073 15.475,167.045 15.758,167.045Z" style="fill:rgb(213,232,212);fill-rule:nonzero;stroke:rgb(130,179,102);stroke-width:0.72px;"/>
                    </g>
                    <g>
                        <text x="464.682px" y="102.407px" style="font-family:'ArialMT', 'Arial', sans-serif;font-size:7.965px;">Business</text>
                        <text x="471.316px" y="111.602px" style="font-family:'ArialMT', 'Arial', sans-serif;font-size:7.965px;">Logic</text>
                    </g>
                    <g>
                        <text x="472.427px" y="135.891px" style="font-family:'ArialMT', 'Arial', sans-serif;font-size:7.965px;">App-</text>
                        <text x="466.893px" y="145.696px" style="font-family:'ArialMT', 'Arial', sans-serif;font-size:7.965px;">Speciﬁc</text>
                    </g>
                    <g>
                        <text x="460.47px" y="194.099px" style="font-family:'ArialMT', 'Arial', sans-serif;font-size:7.965px;">Data Model</text>
                        <text x="460.25px" y="203.904px" style="font-family:'ArialMT', 'Arial', sans-serif;font-size:7.965px;">&amp; Requests</text>
                    </g>
                    <text x="191.218px" y="241.889px" style="font-family:'ArialMT', 'Arial', sans-serif;font-size:7.965px;">V<tspan x="196.385px 198.152px " y="241.889px 241.889px ">id</tspan>eoIPath Connector</text>
                    <g>
                        <text x="474.418px" y="236.988px" style="font-family:'ArialMT', 'Arial', sans-serif;font-size:7.965px;">API</text>
                        <text x="460.69px" y="246.793px" style="font-family:'ArialMT', 'Arial', sans-serif;font-size:7.965px;">Connection</text>
                    </g>
                    <g>
                        <text x="95.972px" y="140.181px" style="font-family:'Arial-BoldMT', 'Arial', sans-serif;font-weight:700;font-size:7.965px;fill:rgb(51,51,51);">System Preferences</text>
                        <text x="98.193px" y="157.336px" style="font-family:'ArialMT', 'Arial', sans-serif;font-size:7.965px;">System Preferences</text>
                        <text x="126.08px" y="167.141px" style="font-family:'ArialMT', 'Arial', sans-serif;font-size:7.965px;">APP</text>
                        <text x="95.34px" y="194.096px" style="font-family:'ArialMT', 'Arial', sans-serif;font-size:7.965px;">Sys. Pref.</text>
                        <text x="106.187px" y="203.902px" style="font-family:'ArialMT', 'Arial', sans-serif;font-size:7.965px;">API</text>
                    </g>
                    <g>
                        <text x="138.229px" y="194.099px" style="font-family:'ArialMT', 'Arial', sans-serif;font-size:7.965px;">Sys. Pref.</text>
                        <text x="144.643px" y="203.904px" style="font-family:'ArialMT', 'Arial', sans-serif;font-size:7.965px;">Model</text>
                    </g>
                    <text x="213.562px" y="140.181px" style="font-family:'Arial-BoldMT', 'Arial', sans-serif;font-weight:700;font-size:7.965px;fill:rgb(51,51,51);">Proﬁle</text>
                    <text x="205.808px" y="162.239px" style="font-family:'ArialMT', 'Arial', sans-serif;font-size:7.965px;">Proﬁle <tspan x="230.136px 235.445px " y="162.239px 162.239px ">AP</tspan>P</text>
                    <g>
                        <text x="193.219px" y="194.099px" style="font-family:'ArialMT', 'Arial', sans-serif;font-size:7.965px;">Proﬁle</text>
                        <text x="198.081px" y="203.904px" style="font-family:'ArialMT', 'Arial', sans-serif;font-size:7.965px;">API</text>
                    </g>
                    <g>
                        <text x="236.107px" y="194.099px" style="font-family:'ArialMT', 'Arial', sans-serif;font-size:7.965px;">Proﬁle</text>
                        <text x="236.548px" y="203.904px" style="font-family:'ArialMT', 'Arial', sans-serif;font-size:7.965px;">Model</text>
                    </g>
                    <text x="300.546px" y="140.181px" style="font-family:'Arial-BoldMT', 'Arial', sans-serif;font-weight:700;font-size:7.965px;fill:rgb(51,51,51);">Inventory</text>
                    <text x="293.232px" y="162.239px" style="font-family:'ArialMT', 'Arial', sans-serif;font-size:7.965px;">Inventory <tspan x="327.74px 333.049px " y="162.239px 162.239px ">AP</tspan>P</text>
                    <g>
                        <text x="280.643px" y="194.099px" style="font-family:'ArialMT', 'Arial', sans-serif;font-size:7.965px;">Inventory</text>
                        <text x="290.609px" y="203.904px" style="font-family:'ArialMT', 'Arial', sans-serif;font-size:7.965px;">API</text>
                    </g>
                    <g>
                        <text x="323.532px" y="194.099px" style="font-family:'ArialMT', 'Arial', sans-serif;font-size:7.965px;">Inventory</text>
                        <text x="329.065px" y="203.904px" style="font-family:'ArialMT', 'Arial', sans-serif;font-size:7.965px;">Model</text>
                    </g>
                    <text x="392.757px" y="140.181px" style="font-family:'Arial-BoldMT', 'Arial', sans-serif;font-weight:700;font-size:7.965px;fill:rgb(51,51,51);">T<tspan x="397.025px 401.885px " y="140.181px 140.181px ">op</tspan>ology</text>
                    <text x="385.577px" y="162.239px" style="font-family:'ArialMT', 'Arial', sans-serif;font-size:7.965px;">T<tspan x="389.558px 393.985px " y="162.239px 162.239px ">op</tspan>ology <tspan x="419.217px 424.527px " y="162.239px 162.239px ">AP</tspan>P</text>
                    <g>
                        <text x="372.988px" y="194.099px" style="font-family:'ArialMT', 'Arial', sans-serif;font-size:7.965px;">T<tspan x="376.97px 381.399px " y="194.099px 194.099px ">op</tspan>ology</text>
                        <text x="382.513px" y="203.904px" style="font-family:'ArialMT', 'Arial', sans-serif;font-size:7.965px;">API</text>
                    </g>
                    <g>
                        <text x="377.222px" y="236.239px" style="font-family:'ArialMT', 'Arial', sans-serif;font-size:7.965px;">Request / Response</text>
                        <text x="402.457px" y="246.044px" style="font-family:'ArialMT', 'Arial', sans-serif;font-size:7.965px;">Model</text>
                    </g>
                    <g>
                        <text x="415.876px" y="194.099px" style="font-family:'ArialMT', 'Arial', sans-serif;font-size:7.965px;">T<tspan x="419.858px 424.288px " y="194.099px 194.099px ">op</tspan>ology</text>
                        <text x="420.97px" y="203.904px" style="font-family:'ArialMT', 'Arial', sans-serif;font-size:7.965px;">Model</text>
                    </g>
                    <text x="243.948px" y="107.096px" style="font-family:'ArialMT', 'Arial', sans-serif;font-size:7.965px;">V<tspan x="249.113px 250.879px " y="107.096px 107.096px ">id</tspan>eoIPathApp</text>
                    <g>
                        <text x="464.682px" y="157.337px" style="font-family:'ArialMT', 'Arial', sans-serif;font-size:7.965px;">Business</text>
                        <text x="471.316px" y="167.142px" style="font-family:'ArialMT', 'Arial', sans-serif;font-size:7.965px;">Logic</text>
                    </g>
                    <g transform="matrix(-0.85384,0,0,0.85384,509.639,182.28)">
                        <path d="M1.076,45.056L496.206,45.056" style="fill:none;fill-rule:nonzero;stroke:black;stroke-width:0.72px;stroke-miterlimit:10;"/>
                    </g>
                    <g transform="matrix(-0.85384,0,0,0.85384,509.639,96.5028)">
                        <path d="M1.076,95.287L496.206,95.287" style="fill:none;fill-rule:nonzero;stroke:black;stroke-width:0.72px;stroke-miterlimit:10;"/>
                    </g>
                </g>
            </g>
        </g>
    </g>
</svg>
